<svg width="150" height="50" viewBox="0 0 150 50" fill="none" xmlns="http://www.w3.org/2000/svg">
<rect width="150" height="50" rx="25" fill="#FE5F1E"/>
<path d="M30.6406 27.2188C30.6406 28.0312 30.3594 28.7031 29.7969 29.2344C29.0573 29.9115 28.0208 30.25 26.6875 30.25C26.1354 30.25 25.6302 30.1615 25.1719 29.9844C24.2969 29.6302 23.8594 29.0573 23.8594 28.2656C23.8594 28.151 23.8698 28.0469 23.8906 27.9531C24.0156 27.5052 24.3385 27.2812 24.8594 27.2812C25.1406 27.2812 25.3646 27.349 25.5312 27.4844C25.7083 27.6406 25.8125 27.9948 25.8438 28.5469C25.8542 28.7969 25.8698 28.9792 25.8906 29.0938C25.9844 29.5833 26.3021 29.8281 26.8438 29.8281C26.8958 29.8281 26.9531 29.8281 27.0156 29.8281C28.0781 29.7344 28.6094 28.8698 28.6094 27.2344C28.6094 26.8073 28.5469 26.4219 28.4219 26.0781C28.1302 25.3177 27.5885 24.9375 26.7969 24.9375C26.2135 24.9375 25.6302 25.1719 25.0469 25.6406L24.5156 25.2344V20.5312C24.9219 20.5521 25.4688 20.5781 26.1562 20.6094C27.0521 20.651 27.6406 20.6719 27.9219 20.6719C28.3073 20.6719 28.6042 20.6406 28.8125 20.5781C29.1042 20.4948 29.3125 20.2812 29.4375 19.9375H29.8594C29.849 20.8021 29.7031 21.4167 29.4219 21.7812C29.099 22.0729 28.375 22.2188 27.25 22.2188C26.6146 22.2188 25.8802 22.1719 25.0469 22.0781V24.9844C25.7865 24.5469 26.5833 24.3229 27.4375 24.3125C28.0625 24.3125 28.6198 24.4271 29.1094 24.6562C30.1302 25.1458 30.6406 26 30.6406 27.2188ZM32.625 27.4375H36.2188C36.4583 27.4375 36.6354 27.4271 36.75 27.4062C37.0104 27.3438 37.2188 27.125 37.375 26.75L37.6562 26.0625H38.0156L38 29H31.6406V28.5469C31.6406 28.0781 31.724 27.6667 31.8906 27.3125C32.1094 26.8333 32.5677 26.3802 33.2656 25.9531C34.0156 25.5052 34.4531 25.2344 34.5781 25.1406C35.3698 24.5365 35.7656 23.6771 35.7656 22.5625C35.7656 22.3333 35.7448 22.1146 35.7031 21.9062C35.5365 21.1875 35.1458 20.8281 34.5312 20.8281C34.2812 20.8281 34.0781 20.8906 33.9219 21.0156C33.7448 21.1719 33.6458 21.5312 33.625 22.0938C33.6146 22.3646 33.599 22.5625 33.5781 22.6875C33.4844 23.1875 33.1615 23.4375 32.6094 23.4375C32.5052 23.4375 32.3958 23.4219 32.2812 23.3906C31.8854 23.2448 31.6875 22.901 31.6875 22.3594C31.6875 21.9427 31.8281 21.5781 32.1094 21.2656C32.6302 20.6927 33.4792 20.4062 34.6562 20.4062C35.1875 20.4062 35.6771 20.474 36.125 20.6094C37.2917 20.9531 37.875 21.651 37.875 22.7031C37.875 23.2969 37.6198 23.8385 37.1094 24.3281C36.7031 24.7135 35.9167 25.1771 34.75 25.7188C34.3229 25.9167 34.0104 26.0677 33.8125 26.1719C33.0208 26.5885 32.625 27.0104 32.625 27.4375ZM43.375 20.4062C44.2292 20.4062 44.9635 20.6146 45.5781 21.0312C46.6615 21.7812 47.2031 23.0417 47.2031 24.8125C47.2031 25.8854 46.9583 26.7969 46.4688 27.5469C45.75 28.6198 44.6927 29.1562 43.2969 29.1562C42.3802 29.1562 41.599 28.9115 40.9531 28.4219C39.9323 27.6406 39.4219 26.4167 39.4219 24.75C39.4219 23.6771 39.6771 22.7604 40.1875 22C40.9062 20.9375 41.9688 20.4062 43.375 20.4062ZM43.3438 28.7344C43.6771 28.7344 43.9583 28.6302 44.1875 28.4219C44.6979 27.9531 44.9531 26.724 44.9531 24.7344C44.9531 23.9115 44.9062 23.224 44.8125 22.6719C44.6042 21.4427 44.1094 20.8281 43.3281 20.8281C43.0677 20.8281 42.8438 20.8854 42.6562 21C42 21.4167 41.6719 22.6875 41.6719 24.8125C41.6719 25.9688 41.7552 26.849 41.9219 27.4531C42.1615 28.3073 42.6354 28.7344 43.3438 28.7344ZM56.3594 29H51.1094V28.5781H52.3281V26.0938H51.1094V25.625H52.3281V24.875H51.1094V24.4062H52.3281V20.0469H51.1094V19.625H56.2969C56.9844 19.625 57.5781 19.7448 58.0781 19.9844C58.9531 20.4115 59.3906 21.1146 59.3906 22.0938C59.3906 22.4896 59.3229 22.849 59.1875 23.1719C58.7292 24.3073 57.599 24.875 55.7969 24.875H54.5156V25.625H56.7812V26.0938H54.5156V28.5781H55.9844C56.0469 28.5781 56.1042 28.5833 56.1562 28.5938C56.2917 28.6146 56.3594 28.75 56.3594 29ZM55.4062 20.0469H54.5156V24.4062H55.3438C56.4583 24.3958 57.026 23.6719 57.0469 22.2344C57.0365 20.7969 56.4896 20.0677 55.4062 20.0469Z" fill="white"/>
<path d="M124.406 20.9844L120.797 24.7812C121.12 24.7188 121.453 24.6875 121.797 24.6875C122.516 24.6875 123.125 24.8177 123.625 25.0781C124.427 25.5052 124.828 26.1719 124.828 27.0781C124.828 27.7552 124.609 28.3646 124.172 28.9062C123.432 29.8021 122.312 30.25 120.812 30.25C120.198 30.25 119.641 30.1719 119.141 30.0156C118.12 29.6719 117.609 29.0833 117.609 28.25C117.609 28.1562 117.62 28.0625 117.641 27.9688C117.745 27.4896 118.068 27.25 118.609 27.25C118.87 27.25 119.078 27.3125 119.234 27.4375C119.401 27.5938 119.5 27.9375 119.531 28.4688C119.552 28.7396 119.573 28.9375 119.594 29.0625C119.708 29.5729 120.062 29.8281 120.656 29.8281C122.052 29.8177 122.76 28.974 122.781 27.2969C122.781 27.0885 122.766 26.8854 122.734 26.6875C122.578 25.6979 122.078 25.2031 121.234 25.2031C120.891 25.2031 120.542 25.276 120.188 25.4219L119.781 25.0938L122.484 22H119.969C119.729 22 119.547 22.0104 119.422 22.0312C119.13 22.0938 118.906 22.3177 118.75 22.7031L118.469 23.4219H118.078L118.109 20.5625H124.406V20.9844Z" fill="white"/>
<path d="M98.3333 31.3333C99.0697 31.3333 99.6667 30.7364 99.6667 30C99.6667 29.2636 99.0697 28.6667 98.3333 28.6667C97.597 28.6667 97 29.2636 97 30C97 30.7364 97.597 31.3333 98.3333 31.3333Z" stroke="white" stroke-width="1.8" stroke-linecap="round" stroke-linejoin="round"/>
<path d="M106.333 31.3333C107.07 31.3333 107.667 30.7364 107.667 30C107.667 29.2636 107.07 28.6667 106.333 28.6667C105.597 28.6667 105 29.2636 105 30C105 30.7364 105.597 31.3333 106.333 31.3333Z" stroke="white" stroke-width="1.8" stroke-linecap="round" stroke-linejoin="round"/>
<path d="M96.78 20H108.333L107.213 25.5933C107.152 25.9003 106.985 26.176 106.742 26.3722C106.498 26.5684 106.193 26.6727 105.88 26.6667H98.8334C98.5078 26.6694 98.1925 26.553 97.9469 26.3393C97.7013 26.1256 97.5423 25.8295 97.5 25.5067L96.4867 17.8267C96.4447 17.5061 96.2876 17.2118 96.0448 16.9984C95.802 16.7851 95.4899 16.6671 95.1667 16.6667H93.6667" stroke="white" stroke-width="1.8" stroke-linecap="round" stroke-linejoin="round"/>
<rect x="79" y="12" width="1" height="25" fill="white" fill-opacity="0.25"/>
</svg>
